<svg xmlns="http://www.w3.org/2000/svg" viewBox="0 0 56.039 54.036">
  <defs>
    <style>
      .cls-1 {
        fill: #eac67a;
      }
    </style>
  </defs>
  <g id="OMLOGO" transform="translate(0 -0.038)">
    <path id="Path_1" data-name="Path 1" class="cls-1" d="M96.662,32.5A28.265,28.265,0,0,0,94.71,26.66V42.642c1.444-.171,2.283-.331,2.335-.337h0A28.077,28.077,0,0,0,96.662,32.5Z" transform="translate(-41.267 -12.545)"/>
    <path id="Path_2" data-name="Path 2" class="cls-1" d="M76.85,54.841V74.065a28.22,28.22,0,0,0,10.194-11.8V54.63a54.178,54.178,0,0,1-10.194.211Z" transform="translate(-33.601 -24.55)"/>
    <path id="Path_3" data-name="Path 3" class="cls-1" d="M69.1,6.634a5.029,5.029,0,0,1,.1.982V7.239A4.9,4.9,0,0,0,67.7,3.7a5.422,5.422,0,0,0-.782-.668,4.766,4.766,0,0,0-.645-.394A4.532,4.532,0,0,0,65.6,2.37h0a5.137,5.137,0,0,0-5.08,1.279A4.829,4.829,0,0,0,59,7.239V29.723l1.393.485.268.091h0l.268.091.251.086a37.216,37.216,0,0,0,6.513,1.712h.474l.445.04h.029l.571.046V7.6a5.211,5.211,0,0,0-.114-.97Z" transform="translate(-25.939 -2.029)"/>
    <path id="Path_4" data-name="Path 4" class="cls-1" d="M41.23,49.792V73.64a28,28,0,0,0,10.143-.04V47.7c-3.282-1.142-6.849-2.517-10.137-3.653v5.742Z" transform="translate(-18.313 -20.009)"/>
    <path id="Path_5" data-name="Path 5" class="cls-1" d="M33.568,7.536V7.045a4.875,4.875,0,0,0-1.5-3.573A4.943,4.943,0,0,0,28.443,2a5.08,5.08,0,0,0-1.284.137l-.32.091c-.154.051-.3.108-.445.171a4.994,4.994,0,0,0-.6.325h0l-.314.217a5.651,5.651,0,0,0-.605.531,4.875,4.875,0,0,0-1.5,3.573V23.512c.833.074,1.667.177,2.489.32a52.969,52.969,0,0,1,7.7,2.14Z" transform="translate(-10.651 -1.96)"/>
    <path id="Path_6" data-name="Path 6" class="cls-1" d="M5.51,39.741v16.41A28.094,28.094,0,0,0,15.7,67.641V39.564a52.559,52.559,0,0,0-10.194.177Z" transform="translate(-2.981 -18.012)"/>
    <path id="Path_7" data-name="Path 7" class="cls-1" d="M1.08,34.362s.97-.171,2.529-.348V26A28.089,28.089,0,0,0,1.08,34.362Z" transform="translate(-1.08 -12.262)"/>
  </g>
</svg>
